<?xml version="1.0" encoding="utf-8"?>
<!-- Generator: Adobe Illustrator 18.0.0, SVG Export Plug-In . SVG Version: 6.00 Build 0)  -->
<!DOCTYPE svg PUBLIC "-//W3C//DTD SVG 1.1//EN" "http://www.w3.org/Graphics/SVG/1.1/DTD/svg11.dtd">
<svg version="1.1" id="Layer_1" xmlns="http://www.w3.org/2000/svg" xmlns:xlink="http://www.w3.org/1999/xlink" x="0px" y="0px"
	 width="110px" height="24px" viewBox="0 0 110 24" enable-background="new 0 0 110 24" xml:space="preserve">
<g>
	<g>
		<defs>
			<path id="SVGID_1_" d="M25.8,15.4l1.4-1.6c0.5,0.4,1,0.7,1.5,0.9c0.5,0.2,1.1,0.3,1.7,0.3c0.5,0,0.9-0.1,1.1-0.3
				c0.3-0.2,0.4-0.4,0.4-0.7v0c0-0.2,0-0.3-0.1-0.4c-0.1-0.1-0.2-0.2-0.3-0.3c-0.2-0.1-0.4-0.2-0.6-0.3c-0.3-0.1-0.6-0.2-1.1-0.3
				c-0.5-0.1-1-0.3-1.4-0.4c-0.4-0.2-0.8-0.4-1.1-0.6c-0.3-0.2-0.5-0.5-0.7-0.9c-0.2-0.4-0.2-0.8-0.2-1.3v0c0-0.5,0.1-0.9,0.3-1.3
				c0.2-0.4,0.4-0.7,0.8-1c0.3-0.3,0.7-0.5,1.2-0.6c0.5-0.1,0.9-0.2,1.5-0.2c0.8,0,1.5,0.1,2.1,0.3c0.6,0.2,1.2,0.6,1.8,1l-1.2,1.7
				c-0.5-0.3-0.9-0.6-1.4-0.8c-0.5-0.2-0.9-0.3-1.4-0.3c-0.5,0-0.8,0.1-1,0.3c-0.2,0.2-0.3,0.4-0.3,0.7v0c0,0.2,0,0.3,0.1,0.4
				c0.1,0.1,0.2,0.2,0.4,0.3c0.2,0.1,0.4,0.2,0.7,0.3c0.3,0.1,0.7,0.2,1.1,0.3c0.5,0.1,1,0.3,1.4,0.5c0.4,0.2,0.8,0.4,1,0.6
				c0.3,0.2,0.5,0.5,0.6,0.9c0.1,0.3,0.2,0.7,0.2,1.2v0c0,0.5-0.1,1-0.3,1.4c-0.2,0.4-0.5,0.7-0.8,1c-0.3,0.3-0.7,0.5-1.2,0.6
				c-0.5,0.1-1,0.2-1.6,0.2c-0.8,0-1.6-0.1-2.4-0.4C27.1,16.4,26.4,15.9,25.8,15.4"/>
		</defs>
		<clipPath id="SVGID_2_">
			<use xlink:href="#SVGID_1_"  overflow="visible"/>
		</clipPath>
		<g clip-path="url(#SVGID_2_)">
			<defs>
				<rect id="SVGID_3_" x="-315.8" y="-5" width="741.5" height="767.5"/>
			</defs>
			<clipPath id="SVGID_4_">
				<use xlink:href="#SVGID_3_"  overflow="visible"/>
			</clipPath>
			<rect x="22.2" y="2.6" clip-path="url(#SVGID_4_)" fill="#424D59" width="15.6" height="18.1"/>
		</g>
	</g>
	<g>
		<defs>
			<path id="SVGID_5_" d="M37.2,14.5c0,0.3,0.1,0.5,0.3,0.7c0.2,0.2,0.5,0.3,0.9,0.3c0.5,0,1-0.1,1.3-0.4c0.3-0.3,0.5-0.6,0.5-1
				v-0.4c-0.2-0.1-0.4-0.2-0.7-0.2c-0.2-0.1-0.5-0.1-0.8-0.1c-0.5,0-0.9,0.1-1.2,0.3C37.4,13.8,37.2,14.1,37.2,14.5L37.2,14.5z
				 M35,14.6L35,14.6c0-0.5,0.1-0.9,0.2-1.2c0.2-0.3,0.4-0.6,0.7-0.8c0.3-0.2,0.6-0.4,1-0.5c0.4-0.1,0.8-0.2,1.3-0.2
				c0.4,0,0.8,0,1.1,0.1c0.3,0.1,0.6,0.1,0.9,0.2v-0.1c0-0.5-0.1-0.9-0.4-1.1c-0.3-0.3-0.7-0.4-1.3-0.4c-0.4,0-0.8,0-1.2,0.1
				c-0.3,0.1-0.7,0.2-1.1,0.3l-0.6-1.7c0.4-0.2,0.9-0.3,1.4-0.5c0.5-0.1,1.1-0.2,1.7-0.2c0.6,0,1.2,0.1,1.6,0.2
				c0.4,0.2,0.8,0.4,1.1,0.7c0.3,0.3,0.5,0.7,0.7,1.1c0.1,0.4,0.2,0.9,0.2,1.5v4.7h-2.2V16c-0.3,0.3-0.6,0.6-1,0.7
				C38.8,17,38.3,17,37.8,17c-0.4,0-0.7-0.1-1.1-0.2c-0.3-0.1-0.6-0.3-0.9-0.5c-0.3-0.2-0.5-0.5-0.6-0.8C35.1,15.3,35,15,35,14.6z"
				/>
		</defs>
		<clipPath id="SVGID_6_">
			<use xlink:href="#SVGID_5_"  overflow="visible"/>
		</clipPath>
		<g clip-path="url(#SVGID_6_)">
			<defs>
				<rect id="SVGID_7_" x="-315.8" y="-5" width="741.5" height="767.5"/>
			</defs>
			<clipPath id="SVGID_8_">
				<use xlink:href="#SVGID_7_"  overflow="visible"/>
			</clipPath>
			<rect x="31.4" y="5.1" clip-path="url(#SVGID_8_)" fill="#424D59" width="14.7" height="15.5"/>
		</g>
	</g>
	<g>
		<defs>
			<path id="SVGID_9_" d="M44.1,16.9V8.8h2.3V10c0.1-0.2,0.3-0.3,0.4-0.5c0.2-0.2,0.3-0.3,0.5-0.4C47.5,9,47.7,8.9,48,8.8
				c0.2-0.1,0.5-0.1,0.8-0.1c0.5,0,1,0.1,1.4,0.3c0.4,0.2,0.7,0.5,0.9,0.9c0.4-0.4,0.7-0.7,1.2-1c0.4-0.2,0.9-0.3,1.5-0.3
				c0.9,0,1.5,0.2,2,0.8c0.5,0.5,0.7,1.2,0.7,2.2v5.2h-2.3v-4.5c0-0.5-0.1-1-0.3-1.2c-0.2-0.3-0.6-0.4-1-0.4c-0.4,0-0.8,0.1-1,0.4
				c-0.2,0.3-0.4,0.7-0.4,1.2v4.5h-2.3v-4.5c0-0.5-0.1-1-0.3-1.2c-0.2-0.3-0.6-0.4-1-0.4s-0.8,0.1-1,0.4c-0.2,0.3-0.4,0.7-0.4,1.2
				v4.5H44.1"/>
		</defs>
		<clipPath id="SVGID_10_">
			<use xlink:href="#SVGID_9_"  overflow="visible"/>
		</clipPath>
		<g clip-path="url(#SVGID_10_)">
			<defs>
				<rect id="SVGID_11_" x="-315.8" y="-5" width="741.5" height="767.5"/>
			</defs>
			<clipPath id="SVGID_12_">
				<use xlink:href="#SVGID_11_"  overflow="visible"/>
			</clipPath>
			<rect x="40.5" y="5.1" clip-path="url(#SVGID_12_)" fill="#424D59" width="19.6" height="15.4"/>
		</g>
	</g>
	<g>
		<defs>
			<path id="SVGID_13_" d="M60.3,12.9c0,0.3,0.1,0.6,0.2,0.9c0.1,0.3,0.2,0.5,0.4,0.7c0.2,0.2,0.4,0.3,0.6,0.5
				c0.2,0.1,0.5,0.2,0.8,0.2c0.3,0,0.5-0.1,0.8-0.2c0.2-0.1,0.4-0.3,0.6-0.5c0.2-0.2,0.3-0.4,0.4-0.7c0.1-0.3,0.2-0.6,0.2-0.9v0
				c0-0.3-0.1-0.6-0.2-0.9c-0.1-0.3-0.2-0.5-0.4-0.7c-0.2-0.2-0.4-0.3-0.6-0.5c-0.2-0.1-0.5-0.2-0.8-0.2c-0.3,0-0.5,0.1-0.8,0.2
				c-0.2,0.1-0.4,0.3-0.6,0.5c-0.2,0.2-0.3,0.4-0.4,0.7C60.4,12.2,60.3,12.5,60.3,12.9L60.3,12.9z M58.1,19.3V8.8h2.3V10
				c0.3-0.4,0.6-0.7,1-0.9c0.4-0.2,0.9-0.4,1.5-0.4c0.5,0,0.9,0.1,1.4,0.3c0.4,0.2,0.8,0.4,1.2,0.8c0.3,0.4,0.6,0.8,0.8,1.3
				c0.2,0.5,0.3,1.1,0.3,1.8v0c0,0.7-0.1,1.3-0.3,1.8c-0.2,0.5-0.5,1-0.8,1.3c-0.3,0.4-0.7,0.6-1.2,0.8C63.8,17,63.3,17,62.9,17
				c-0.6,0-1.1-0.1-1.5-0.4c-0.4-0.2-0.7-0.5-1-0.8v3.5H58.1z"/>
		</defs>
		<clipPath id="SVGID_14_">
			<use xlink:href="#SVGID_13_"  overflow="visible"/>
		</clipPath>
		<g clip-path="url(#SVGID_14_)">
			<defs>
				<rect id="SVGID_15_" x="-315.8" y="-5" width="741.5" height="767.5"/>
			</defs>
			<clipPath id="SVGID_16_">
				<use xlink:href="#SVGID_15_"  overflow="visible"/>
			</clipPath>
			<rect x="54.4" y="5.1" clip-path="url(#SVGID_16_)" fill="#424D59" width="15.7" height="17.9"/>
		</g>
	</g>
	<g>
		<defs>
			<rect id="SVGID_17_" x="67.5" y="5.9" width="2.3" height="11"/>
		</defs>
		<clipPath id="SVGID_18_">
			<use xlink:href="#SVGID_17_"  overflow="visible"/>
		</clipPath>
		<g clip-path="url(#SVGID_18_)">
			<defs>
				<rect id="SVGID_19_" x="-315.8" y="-5" width="741.5" height="767.5"/>
			</defs>
			<clipPath id="SVGID_20_">
				<use xlink:href="#SVGID_19_"  overflow="visible"/>
			</clipPath>
			<rect x="63.9" y="2.3" clip-path="url(#SVGID_20_)" fill="#424D59" width="9.5" height="18.2"/>
		</g>
	</g>
	<g>
		<defs>
			<path id="SVGID_21_" d="M73,12.2h3.4c-0.1-0.5-0.3-0.9-0.5-1.2c-0.3-0.3-0.7-0.5-1.2-0.5s-0.9,0.2-1.2,0.5
				C73.2,11.3,73,11.7,73,12.2z M70.7,12.9L70.7,12.9c0-0.6,0.1-1.1,0.3-1.7c0.2-0.5,0.5-1,0.8-1.3c0.3-0.4,0.8-0.7,1.3-0.9
				c0.5-0.2,1-0.3,1.6-0.3c0.7,0,1.3,0.1,1.7,0.4c0.5,0.2,0.9,0.6,1.2,1c0.3,0.4,0.6,0.9,0.7,1.4c0.2,0.5,0.2,1.1,0.2,1.6
				c0,0.1,0,0.2,0,0.3c0,0.1,0,0.2,0,0.3H73c0.1,0.5,0.3,0.9,0.7,1.2c0.3,0.3,0.8,0.4,1.3,0.4c0.4,0,0.7-0.1,1-0.2
				c0.3-0.1,0.6-0.3,0.9-0.6l1.3,1.2c-0.4,0.5-0.8,0.8-1.4,1.1c-0.5,0.3-1.2,0.4-1.9,0.4c-0.6,0-1.2-0.1-1.7-0.3
				c-0.5-0.2-1-0.5-1.3-0.9c-0.4-0.4-0.7-0.8-0.9-1.3C70.8,14.1,70.7,13.5,70.7,12.9z"/>
		</defs>
		<clipPath id="SVGID_22_">
			<use xlink:href="#SVGID_21_"  overflow="visible"/>
		</clipPath>
		<g clip-path="url(#SVGID_22_)">
			<defs>
				<rect id="SVGID_23_" x="-315.8" y="-5" width="741.5" height="767.5"/>
			</defs>
			<clipPath id="SVGID_24_">
				<use xlink:href="#SVGID_23_"  overflow="visible"/>
			</clipPath>
			<rect x="67.1" y="5.1" clip-path="url(#SVGID_24_)" fill="#424D59" width="15.2" height="15.6"/>
		</g>
	</g>
	<g>
		<defs>
			<path id="SVGID_25_" d="M82.1,11.6c0,0.5,0.1,0.9,0.2,1.3c0.2,0.4,0.4,0.8,0.7,1.1c0.3,0.3,0.6,0.5,1,0.7
				c0.4,0.2,0.8,0.3,1.3,0.3c0.5,0,0.9-0.1,1.3-0.3c0.4-0.2,0.7-0.4,1-0.7c0.3-0.3,0.5-0.6,0.7-1c0.2-0.4,0.2-0.8,0.2-1.3v0
				c0-0.5-0.1-0.9-0.2-1.3c-0.2-0.4-0.4-0.8-0.7-1.1c-0.3-0.3-0.6-0.5-1-0.7c-0.4-0.2-0.8-0.3-1.3-0.3c-0.5,0-0.9,0.1-1.3,0.3
				c-0.4,0.2-0.7,0.4-1,0.7c-0.3,0.3-0.5,0.7-0.6,1C82.2,10.7,82.1,11.2,82.1,11.6L82.1,11.6z M79.7,11.7L79.7,11.7
				c0-0.8,0.1-1.5,0.4-2.1c0.3-0.7,0.7-1.2,1.2-1.7c0.5-0.5,1.1-0.9,1.8-1.2c0.7-0.3,1.4-0.4,2.2-0.4c0.8,0,1.6,0.1,2.2,0.4
				c0.7,0.3,1.3,0.7,1.8,1.2c0.5,0.5,0.9,1.1,1.2,1.7c0.3,0.7,0.4,1.4,0.4,2.1v0c0,0.8-0.1,1.5-0.4,2.1c-0.3,0.7-0.7,1.2-1.2,1.7
				c-0.5,0.5-1.1,0.9-1.8,1.2c-0.7,0.3-1.4,0.4-2.3,0.4c-0.8,0-1.6-0.1-2.2-0.4c-0.7-0.3-1.3-0.7-1.8-1.2c-0.5-0.5-0.9-1.1-1.2-1.7
				C79.9,13.1,79.7,12.4,79.7,11.7z"/>
		</defs>
		<clipPath id="SVGID_26_">
			<use xlink:href="#SVGID_25_"  overflow="visible"/>
		</clipPath>
		<g clip-path="url(#SVGID_26_)">
			<defs>
				<rect id="SVGID_27_" x="-315.8" y="-5" width="741.5" height="767.5"/>
			</defs>
			<clipPath id="SVGID_28_">
				<use xlink:href="#SVGID_27_"  overflow="visible"/>
			</clipPath>
			<rect x="76.1" y="2.6" clip-path="url(#SVGID_28_)" fill="#424D59" width="18.4" height="18.1"/>
		</g>
	</g>
	<g>
		<defs>
			<path id="SVGID_29_" d="M92,16.9V8.8h2.3V10c0.1-0.2,0.3-0.3,0.4-0.5c0.2-0.2,0.3-0.3,0.5-0.4c0.2-0.1,0.4-0.2,0.6-0.3
				c0.2-0.1,0.5-0.1,0.8-0.1c0.9,0,1.5,0.3,2,0.8c0.5,0.5,0.7,1.3,0.7,2.2v5.2h-2.3v-4.5c0-0.5-0.1-1-0.4-1.2
				c-0.2-0.3-0.6-0.4-1-0.4c-0.4,0-0.8,0.1-1,0.4c-0.3,0.3-0.4,0.7-0.4,1.2v4.5H92"/>
		</defs>
		<clipPath id="SVGID_30_">
			<use xlink:href="#SVGID_29_"  overflow="visible"/>
		</clipPath>
		<g clip-path="url(#SVGID_30_)">
			<defs>
				<rect id="SVGID_31_" x="-315.8" y="-5" width="741.5" height="767.5"/>
			</defs>
			<clipPath id="SVGID_32_">
				<use xlink:href="#SVGID_31_"  overflow="visible"/>
			</clipPath>
			<rect x="88.4" y="5.1" clip-path="url(#SVGID_32_)" fill="#424D59" width="14.6" height="15.4"/>
		</g>
	</g>
	<g>
		<defs>
			<path id="SVGID_33_" d="M102.5,12.2h3.4c-0.1-0.5-0.2-0.9-0.5-1.2c-0.3-0.3-0.7-0.5-1.2-0.5c-0.5,0-0.9,0.2-1.2,0.5
				C102.8,11.3,102.6,11.7,102.5,12.2z M100.2,12.9L100.2,12.9c0-0.6,0.1-1.1,0.3-1.7c0.2-0.5,0.5-1,0.8-1.3
				c0.4-0.4,0.8-0.7,1.3-0.9c0.5-0.2,1-0.3,1.6-0.3c0.7,0,1.3,0.1,1.7,0.4c0.5,0.2,0.9,0.6,1.2,1c0.3,0.4,0.6,0.9,0.7,1.4
				c0.2,0.5,0.2,1.1,0.2,1.6c0,0.1,0,0.2,0,0.3c0,0.1,0,0.2,0,0.3h-5.6c0.1,0.5,0.3,0.9,0.7,1.2c0.3,0.3,0.8,0.4,1.3,0.4
				c0.4,0,0.7-0.1,1-0.2c0.3-0.1,0.6-0.3,0.9-0.6l1.3,1.2c-0.4,0.5-0.8,0.8-1.4,1.1c-0.5,0.3-1.2,0.4-1.9,0.4
				c-0.6,0-1.2-0.1-1.7-0.3c-0.5-0.2-1-0.5-1.3-0.9c-0.4-0.4-0.7-0.8-0.9-1.3C100.3,14.1,100.2,13.5,100.2,12.9z"/>
		</defs>
		<clipPath id="SVGID_34_">
			<use xlink:href="#SVGID_33_"  overflow="visible"/>
		</clipPath>
		<g clip-path="url(#SVGID_34_)">
			<defs>
				<rect id="SVGID_35_" x="-315.8" y="-5" width="741.5" height="767.5"/>
			</defs>
			<clipPath id="SVGID_36_">
				<use xlink:href="#SVGID_35_"  overflow="visible"/>
			</clipPath>
			<rect x="96.6" y="5.1" clip-path="url(#SVGID_36_)" fill="#424D59" width="15.2" height="15.6"/>
		</g>
	</g>
	<g>
		<defs>
			<rect id="SVGID_37_" x="1.8" y="2.3" width="19.4" height="19.4"/>
		</defs>
		<clipPath id="SVGID_38_">
			<use xlink:href="#SVGID_37_"  overflow="visible"/>
		</clipPath>
		<g clip-path="url(#SVGID_38_)">
			<defs>
				<rect id="SVGID_39_" x="-315.8" y="-5" width="741.5" height="767.5"/>
			</defs>
			<clipPath id="SVGID_40_">
				<use xlink:href="#SVGID_39_"  overflow="visible"/>
			</clipPath>
			<rect x="-1.8" y="-1.3" clip-path="url(#SVGID_40_)" fill="#7861AF" width="26.6" height="26.6"/>
		</g>
	</g>
	<g>
		<defs>
			<path id="SVGID_41_" d="M15.1,16.5h2V7.4h-1.4l-2.6,0.8l0.4,1.6l1.6-0.4V16.5z M8.8,16.7c2,0,3.3-1,3.3-2.8v0
				c0-1.6-1-2.2-2.9-2.7c-1.6-0.4-2-0.6-2-1.2v0c0-0.4,0.4-0.8,1.2-0.8S10,9.4,10.8,10l1-1.5c-0.9-0.7-2.1-1.2-3.4-1.2
				c-1.9,0-3.2,1.1-3.2,2.7v0c0,1.8,1.2,2.3,3,2.8c1.5,0.4,1.8,0.6,1.8,1.2v0c0,0.5-0.5,0.9-1.3,0.9c-1,0-1.9-0.4-2.7-1.1l-1.2,1.4
				C6,16.2,7.4,16.7,8.8,16.7z"/>
		</defs>
		<clipPath id="SVGID_42_">
			<use xlink:href="#SVGID_41_"  overflow="visible"/>
		</clipPath>
		<g clip-path="url(#SVGID_42_)">
			<defs>
				<rect id="SVGID_43_" x="-315.7" y="-5" width="741.5" height="767.5"/>
			</defs>
			<clipPath id="SVGID_44_">
				<use xlink:href="#SVGID_43_"  overflow="visible"/>
			</clipPath>
			<rect x="1.3" y="3.7" clip-path="url(#SVGID_44_)" fill="#FFFFFF" width="19.4" height="16.6"/>
		</g>
	</g>
</g>
</svg>
